<?xml version="1.0" encoding="UTF-8" standalone="no"?>
<!-- Created with Inkscape (http://www.inkscape.org/) -->

<svg
   xmlns:dc="http://purl.org/dc/elements/1.1/"
   xmlns:cc="http://creativecommons.org/ns#"
   xmlns:rdf="http://www.w3.org/1999/02/22-rdf-syntax-ns#"
   xmlns:svg="http://www.w3.org/2000/svg"
   xmlns="http://www.w3.org/2000/svg"
   xmlns:sodipodi="http://sodipodi.sourceforge.net/DTD/sodipodi-0.dtd"
   xmlns:inkscape="http://www.inkscape.org/namespaces/inkscape"
   width="210mm"
   height="297mm"
   viewBox="0 0 744.09448819 1052.3622047"
   id="svg3488"
   version="1.1"
   inkscape:version="0.91 r13725"
   sodipodi:docname="ngp van logo circle only.svg">
  <defs
     id="defs3490" />
  <sodipodi:namedview
     id="base"
     pagecolor="#ffffff"
     bordercolor="#666666"
     borderopacity="1.0"
     inkscape:pageopacity="0.0"
     inkscape:pageshadow="2"
     inkscape:zoom="0.49497475"
     inkscape:cx="356.38036"
     inkscape:cy="524.18419"
     inkscape:document-units="px"
     inkscape:current-layer="layer1"
     showgrid="false"
     inkscape:window-width="1366"
     inkscape:window-height="702"
     inkscape:window-x="-8"
     inkscape:window-y="-8"
     inkscape:window-maximized="1" />
  <metadata
     id="metadata3493">
    <rdf:RDF>
      <cc:Work
         rdf:about="">
        <dc:format>image/svg+xml</dc:format>
        <dc:type
           rdf:resource="http://purl.org/dc/dcmitype/StillImage" />
      </cc:Work>
    </rdf:RDF>
  </metadata>
  <g
     inkscape:label="Layer 1"
     inkscape:groupmode="layer"
     id="layer1">
    <g
       transform="matrix(0.242711,0,0,0.24267783,0.99455826,971.35676)"
       id="g17"
       style="fill:#ffffff">
      <circle
         style="fill:#ffffff"
         cx="164.8"
         cy="164.8"
         r="40.599998"
         id="circle19" />
      <g
         id="g21"
         style="fill:#ffffff">
        <path
           style="fill:#ffffff"
           inkscape:connector-curvature="0"
           d="m 127.1,25.8 c 8.2,-20.9 31.7,-31.1 52.6,-23 20.9,8.2 31.1,31.7 23,52.6 -8.2,20.9 -31.7,31.1 -52.6,23 -20.9,-8.2 -31.2,-31.8 -23,-52.6 z"
           id="path23" />
        <path
           style="fill:#ffffff"
           inkscape:connector-curvature="0"
           d="m 39.8,93.2 c -9,-20.5 0.4,-44.4 20.9,-53.4 20.5,-9 44.4,0.4 53.4,20.9 9,20.5 -0.4,44.4 -20.9,53.4 -20.5,9 -44.4,-0.4 -53.4,-20.9 z"
           id="path25" />
        <path
           style="fill:#ffffff"
           inkscape:connector-curvature="0"
           d="M 25.8,202.6 C 4.9,194.4 -5.3,170.9 2.8,150 11,129.1 34.5,118.9 55.4,127 c 20.9,8.2 31.1,31.7 23,52.6 -8.2,20.9 -31.8,31.2 -52.6,23 z"
           id="path27" />
        <path
           style="fill:#ffffff"
           inkscape:connector-curvature="0"
           d="m 93.2,289.8 c -20.5,9 -44.4,-0.4 -53.4,-20.9 -9,-20.5 0.4,-44.4 20.9,-53.4 20.5,-9 44.4,0.4 53.4,20.9 9,20.6 -0.4,44.5 -20.9,53.4 z"
           id="path29" />
        <path
           style="fill:#ffffff"
           inkscape:connector-curvature="0"
           d="m 202.5,303.9 c -8.2,20.9 -31.7,31.1 -52.6,23 -20.9,-8.2 -31.1,-31.7 -23,-52.6 8.2,-20.9 31.7,-31.1 52.6,-23 21,8.2 31.2,31.7 23,52.6 z"
           id="path31" />
        <path
           style="fill:#ffffff"
           inkscape:connector-curvature="0"
           d="m 289.8,236.5 c 9,20.5 -0.4,44.4 -21,53.4 -20.5,9 -44.4,-0.4 -53.4,-21 -9,-20.5 0.4,-44.4 20.9,-53.4 20.6,-8.9 44.6,0.5 53.5,21 z"
           id="path33" />
        <path
           style="fill:#ffffff"
           inkscape:connector-curvature="0"
           d="m 303.9,127.1 c 20.9,8.2 31.1,31.7 22.9,52.6 -8.2,20.9 -31.7,31.1 -52.6,22.9 -20.9,-8.2 -31.1,-31.7 -23,-52.6 8.3,-20.8 31.8,-31.1 52.7,-22.9 z"
           id="path35" />
        <path
           style="fill:#ffffff"
           inkscape:connector-curvature="0"
           d="m 236.5,39.8 c 20.5,-9 44.4,0.4 53.4,21 9,20.5 -0.4,44.4 -21,53.4 -20.5,9 -44.4,-0.4 -53.4,-21 -8.9,-20.5 0.5,-44.4 21,-53.4 z"
           id="path37" />
      </g>
    </g>
  </g>
</svg>
